# xmcd
#
# Track frame offsets:
#	150
#	14482
#	35997
#	50114
#	65421
#	84691
#	103073
#	121057
#	134468
#	150669
#	170844
#	189735
#
# Disc length: 2791 seconds
#
# Revision: 0
# Processed by: cddbd v1.5.2PL0 Copyright (c) Steve Scherf et al.
# Submitted via: EasyCDDAExtractor 16.0.1.1
#
DISCID=b10ae50c
DTITLE=Ruby Dee and The Snakehandlers - North Of Bakersfield
DYEAR=2006
DGENRE=Hillbilly
TTITLE0=Okänd1Who Is She
TTITLE1=Just one Day
TTITLE2=So Lonely
TTITLE3=Something Bad
TTITLE4=Now i Want You (Out Of My Head)
TTITLE5=After the Flood
TTITLE6=So Long
TTITLE7=I Remember You
TTITLE8=4500 Saturdays
TTITLE9=I Will Always Return
TTITLE10=Make it Last
TTITLE11=Walkin' Lie
EXTD=
EXTT0=
EXTT1=
EXTT2=
EXTT3=
EXTT4=
EXTT5=
EXTT6=
EXTT7=
EXTT8=
EXTT9=
EXTT10=
EXTT11=
PLAYORDER=
